name ./resultDataOpenSim/trcMotMarkerGrf/sub09/grf-13-02.mot
datacolumns 19
datarows 17
range 1.04400000 1.10800000
endheader

                time	     ground_force_vx	     ground_force_vy	     ground_force_vz	     ground_force_px	     ground_force_py	     ground_force_pz	   l_ground_force_vx	   l_ground_force_vy	   l_ground_force_vz	   l_ground_force_px	   l_ground_force_py	   l_ground_force_pz	     ground_torque_x	     ground_torque_y	     ground_torque_z	   l_ground_torque_x	   l_ground_torque_y	   l_ground_torque_z	
          1.04400000	          0.00000000	          0.00000000	          0.00000000	          0.00000000	          0.00000000	          0.00000000	          1.34067177	        503.64376367	          6.82157911	          0.13547452	         -0.05000000	         -0.01176360	          0.00000000	          0.00000000	          0.00000000	          0.00000000	         -1.77875021	          0.00000000	
          1.04800000	          0.00000000	          0.00000000	          0.00000000	          0.00000000	          0.00000000	          0.00000000	          3.51942164	        509.87412668	          8.29942801	          0.13658994	         -0.05000000	         -0.01142465	          0.00000000	          0.00000000	          0.00000000	          0.00000000	         -1.82191808	          0.00000000	
          1.05200000	          0.00000000	          0.00000000	          0.00000000	          0.00000000	          0.00000000	          0.00000000	          5.97218142	        515.91568903	          9.58645037	          0.13755505	         -0.05000000	         -0.01114041	          0.00000000	          0.00000000	          0.00000000	          0.00000000	         -1.90297396	          0.00000000	
          1.05600000	          0.00000000	          0.00000000	          0.00000000	          0.00000000	          0.00000000	          0.00000000	          8.73125764	        521.83735510	         10.46105375	          0.13835590	         -0.05000000	         -0.01090677	          0.00000000	          0.00000000	          0.00000000	          0.00000000	         -2.03464142	          0.00000000	
          1.06000000	          0.00000000	          0.00000000	          0.00000000	          0.00000000	          0.00000000	          0.00000000	         11.81427388	        527.70759712	         10.84163415	          0.13900673	         -0.05000000	         -0.01071087	          0.00000000	          0.00000000	          0.00000000	          0.00000000	         -2.22232129	          0.00000000	
          1.06400000	          0.00000000	          0.00000000	          0.00000000	          0.00000000	          0.00000000	          0.00000000	         15.23187802	        533.56217568	         10.78907347	          0.13955637	         -0.05000000	         -0.01053521	          0.00000000	          0.00000000	          0.00000000	          0.00000000	         -2.46280708	          0.00000000	
          1.06800000	          0.00000000	          0.00000000	          0.00000000	          0.00000000	          0.00000000	          0.00000000	         19.01488160	        539.43465205	         10.45158139	          0.14007961	         -0.05000000	         -0.01035468	          0.00000000	          0.00000000	          0.00000000	          0.00000000	         -2.74545941	          0.00000000	
          1.07200000	          0.00000000	          0.00000000	          0.00000000	          0.00000000	          0.00000000	          0.00000000	         23.21245037	        545.37423447	         10.00391321	          0.14065816	         -0.05000000	         -0.01013848	          0.00000000	          0.00000000	          0.00000000	          0.00000000	         -3.05522171	          0.00000000	
          1.07600000	          0.00000000	          0.00000000	          0.00000000	          0.00000000	          0.00000000	          0.00000000	         27.85984666	        551.43114097	          9.59504818	          0.14135249	         -0.05000016	         -0.00986385	          0.00000000	          0.00000000	          0.00000000	          0.00000000	         -3.37628699	          0.00000000	
          1.08000000	          0.00000000	          0.00000000	          0.00000000	          0.00000000	          0.00000000	          0.00000000	         32.94236467	        557.65156962	          9.30171961	          0.14218086	         -0.05000073	         -0.00953158	          0.00000000	          0.00000000	          0.00000000	          0.00000000	         -3.69519581	          0.00000000	
          1.08400000	          0.00000000	          0.00000000	          0.00000000	          0.00000000	          0.00000000	          0.00000000	         38.37144157	        564.09829524	          9.10878691	          0.14311098	         -0.05000100	         -0.00916167	          0.00000000	          0.00000000	          0.00000000	          0.00000000	         -4.00247554	          0.00000000	
          1.08800000	          0.00000000	          0.00000000	          0.00000000	          0.00000000	          0.00000000	          0.00000000	         43.99070494	        570.86452624	          8.94017625	          0.14409998	         -0.05000100	         -0.00876472	          0.00000000	          0.00000000	          0.00000000	          0.00000000	         -4.29247614	          0.00000000	
          1.09200000	          0.00000000	          0.00000000	          0.00000000	          0.00000000	          0.00000000	          0.00000000	         49.61762476	        578.06296574	          8.72090092	          0.14511845	         -0.05000100	         -0.00834064	          0.00000000	          0.00000000	          0.00000000	          0.00000000	         -4.56174930	          0.00000000	
          1.09600000	          0.00000000	          0.00000000	          0.00000000	          0.00000000	          0.00000000	          0.00000000	         55.09420172	        585.82404041	          8.42397479	          0.14612339	         -0.05000100	         -0.00790124	          0.00000000	          0.00000000	          0.00000000	          0.00000000	         -4.80691628	          0.00000000	
          1.10000000	          0.00000000	          0.00000000	          0.00000000	          0.00000000	          0.00000000	          0.00000000	         60.31580885	        594.30995604	          8.08387387	          0.14704687	         -0.05000100	         -0.00747645	          0.00000000	          0.00000000	          0.00000000	          0.00000000	         -5.02313974	          0.00000000	
          1.10400000	          0.00000000	          0.00000000	          0.00000000	          0.00000000	          0.00000000	          0.00000000	         65.23686201	        603.66922707	          7.78360833	          0.14783049	         -0.05000100	         -0.00709349	          0.00000000	          0.00000000	          0.00000000	          0.00000000	         -5.20396241	          0.00000000	
          1.10800000	          0.00000000	          0.00000000	          0.00000000	          0.00000000	          0.00000000	          0.00000000	         69.86187551	        613.93203427	          7.62504483	          0.14847931	         -0.05000100	         -0.00676758	          0.00000000	          0.00000000	          0.00000000	          0.00000000	         -5.34261070	          0.00000000	
